<svg xmlns="http://www.w3.org/2000/svg" width="500" zoomAndPan="magnify"
     viewBox="0 0 375 374.999991" height="500" preserveAspectRatio="xMidYMid meet" version="1.0">
    <defs>
        <clipPath id="f4405005f6">
            <path d="M 25 11.667969 L 359.316406 11.667969 L 359.316406 363.417969 L 25 363.417969 Z M 25 11.667969 "
                  clip-rule="nonzero"/>
        </clipPath>
        <clipPath id="54608ef323">
            <path d="M 32 330 L 124 330 L 124 363.417969 L 32 363.417969 Z M 32 330 " clip-rule="nonzero"/>
        </clipPath>
        <clipPath id="e1107854be">
            <path d="M 25 11.667969 L 359.316406 11.667969 L 359.316406 363.417969 L 25 363.417969 Z M 25 11.667969 "
                  clip-rule="nonzero"/>
        </clipPath>
        <clipPath id="51173153ca">
            <path d="M 133 137 L 240 137 L 240 363.417969 L 133 363.417969 Z M 133 137 " clip-rule="nonzero"/>
        </clipPath>
        <clipPath id="2fec8251c0">
            <path d="M 192.417969 11.667969 C 100.339844 11.667969 25.699219 86.296875 25.699219 178.363281 C 25.699219 214.039062 36.914062 247.097656 56 274.207031 C 46.007812 301.011719 36.015625 327.820312 26.027344 354.632812 C 24.285156 359.300781 29.8125 364.828125 34.484375 363.085938 C 64.046875 352.074219 93.613281 341.054688 123.175781 330.042969 C 144.265625 339.6875 167.71875 345.0625 192.421875 345.0625 C 284.5 345.0625 359.148438 270.429688 359.148438 178.363281 C 359.148438 86.296875 284.5 11.667969 192.421875 11.667969 "
                  clip-rule="nonzero"/>
        </clipPath>
        <clipPath id="a05f307328">
            <path d="M 25.339844 150.488281 L 109 150.488281 L 109 363.417969 L 25.339844 363.417969 Z M 25.339844 150.488281 "
                  clip-rule="nonzero"/>
        </clipPath>
        <clipPath id="c473d40e5c">
            <path d="M 192.417969 11.667969 C 100.339844 11.667969 25.699219 86.296875 25.699219 178.363281 C 25.699219 214.039062 36.914062 247.097656 56 274.207031 C 46.007812 301.011719 36.015625 327.820312 26.027344 354.632812 C 24.285156 359.300781 29.8125 364.828125 34.484375 363.085938 C 64.046875 352.074219 93.613281 341.054688 123.175781 330.042969 C 144.265625 339.6875 167.71875 345.0625 192.421875 345.0625 C 284.5 345.0625 359.148438 270.429688 359.148438 178.363281 C 359.148438 86.296875 284.5 11.667969 192.421875 11.667969 "
                  clip-rule="nonzero"/>
        </clipPath>
        <clipPath id="c59f09fe34">
            <path d="M 264.167969 150.488281 L 359.125 150.488281 L 359.125 363.417969 L 264.167969 363.417969 Z M 264.167969 150.488281 "
                  clip-rule="nonzero"/>
        </clipPath>
        <clipPath id="8af1cd3587">
            <path d="M 192.417969 11.667969 C 100.339844 11.667969 25.699219 86.296875 25.699219 178.363281 C 25.699219 214.039062 36.914062 247.097656 56 274.207031 C 46.007812 301.011719 36.015625 327.820312 26.027344 354.632812 C 24.285156 359.300781 29.8125 364.828125 34.484375 363.085938 C 64.046875 352.074219 93.613281 341.054688 123.175781 330.042969 C 144.265625 339.6875 167.71875 345.0625 192.421875 345.0625 C 284.5 345.0625 359.148438 270.429688 359.148438 178.363281 C 359.148438 86.296875 284.5 11.667969 192.421875 11.667969 "
                  clip-rule="nonzero"/>
        </clipPath>
        <clipPath id="d114290bb5">
            <path d="M 15.816406 52 L 102 52 L 102 139 L 15.816406 139 Z M 15.816406 52 " clip-rule="nonzero"/>
        </clipPath>
        <clipPath id="d52a7527b5">
            <path d="M 273 52 L 359.316406 52 L 359.316406 139 L 273 139 Z M 273 52 " clip-rule="nonzero"/>
        </clipPath>
    </defs>
    <g clip-path="url(#f4405005f6)">
        <path fill="#8540f5"
              d="M 192.417969 11.667969 C 100.339844 11.667969 25.699219 86.296875 25.699219 178.363281 C 25.699219 214.039062 36.914062 247.097656 56 274.207031 C 46.007812 301.011719 36.015625 327.820312 26.027344 354.632812 C 24.285156 359.300781 29.8125 364.828125 34.484375 363.09375 C 64.046875 352.074219 93.613281 341.054688 123.175781 330.042969 C 144.265625 339.6875 167.71875 345.0625 192.421875 345.0625 C 284.5 345.0625 359.148438 270.429688 359.148438 178.363281 C 359.148438 86.296875 284.5 11.667969 192.421875 11.667969 "
              fill-opacity="1" fill-rule="nonzero"/>
    </g>
    <g clip-path="url(#54608ef323)">
        <path fill="#ffffff"
              d="M 32.652344 363.417969 C 33.265625 363.417969 33.878906 363.320312 34.484375 363.097656 C 64.046875 352.078125 93.613281 341.058594 123.175781 330.046875 C 93.613281 341.058594 64.046875 352.078125 34.484375 363.097656 C 33.882812 363.320312 33.265625 363.417969 32.652344 363.417969 "
              fill-opacity="1" fill-rule="nonzero"/>
    </g>
    <g clip-path="url(#e1107854be)">
        <path fill="#e0cffc"
              d="M 32.652344 363.417969 C 28.507812 363.417969 24.511719 358.703125 26.027344 354.636719 C 36.019531 327.824219 46.007812 301.015625 56.003906 274.210938 C 36.914062 247.101562 25.699219 214.042969 25.699219 178.367188 C 25.699219 86.300781 100.339844 11.667969 192.417969 11.667969 C 284.5 11.667969 359.148438 86.300781 359.148438 178.367188 C 359.148438 270.433594 284.5 345.0625 192.417969 345.0625 C 167.714844 345.0625 144.265625 339.691406 123.171875 330.046875 C 93.613281 341.058594 64.046875 352.078125 34.480469 363.097656 C 33.878906 363.320312 33.265625 363.417969 32.652344 363.417969 "
              fill-opacity="1" fill-rule="nonzero"/>
    </g>
    <g clip-path="url(#51173153ca)">
        <g clip-path="url(#2fec8251c0)">
            <path fill="#8540f5"
                  d="M 231.164062 137.417969 L 141.828125 137.417969 C 136.964844 137.417969 133.015625 141.359375 133.015625 146.222656 L 133.015625 372.351562 C 133.015625 377.214844 136.957031 381.15625 141.828125 381.15625 L 231.164062 381.15625 C 236.027344 381.15625 239.96875 377.214844 239.96875 372.351562 L 239.96875 146.222656 C 239.96875 141.359375 236.027344 137.417969 231.164062 137.417969 "
                  fill-opacity="1" fill-rule="nonzero"/>
        </g>
    </g>
    <g clip-path="url(#a05f307328)">
        <g clip-path="url(#c473d40e5c)">
            <path fill="#a370f7"
                  d="M 100.003906 150.847656 L 10.65625 150.847656 C 5.796875 150.847656 1.851562 154.789062 1.851562 159.660156 L 1.851562 385.78125 C 1.851562 390.644531 5.796875 394.585938 10.660156 394.585938 L 100 394.585938 C 104.867188 394.585938 108.808594 390.644531 108.808594 385.78125 L 108.808594 159.660156 C 108.808594 154.789062 104.867188 150.847656 100.003906 150.847656 "
                  fill-opacity="1" fill-rule="nonzero"/>
        </g>
    </g>
    <g clip-path="url(#c59f09fe34)">
        <g clip-path="url(#8af1cd3587)">
            <path fill="#a370f7"
                  d="M 362.328125 150.847656 L 272.988281 150.847656 C 268.125 150.847656 264.183594 154.789062 264.183594 159.660156 L 264.183594 385.78125 C 264.183594 390.644531 268.125 394.585938 272.988281 394.585938 L 362.328125 394.585938 C 367.191406 394.585938 371.140625 390.644531 371.140625 385.78125 L 371.140625 159.660156 C 371.140625 154.789062 367.191406 150.847656 362.328125 150.847656 "
                  fill-opacity="1" fill-rule="nonzero"/>
        </g>
    </g>
    <path fill="#8540f5"
          d="M 186.148438 17.988281 C 216.691406 17.988281 241.460938 42.75 241.460938 73.292969 C 241.460938 103.835938 216.691406 128.59375 186.148438 128.59375 C 155.601562 128.59375 130.835938 103.835938 130.835938 73.292969 C 130.835938 42.75 155.601562 17.988281 186.148438 17.988281 "
          fill-opacity="1" fill-rule="nonzero"/>
    <g clip-path="url(#d114290bb5)">
        <path fill="#a370f7"
              d="M 58.648438 52.839844 C 82.207031 52.839844 101.3125 71.9375 101.3125 95.492188 C 101.3125 119.050781 82.207031 138.144531 58.648438 138.144531 C 35.085938 138.144531 15.988281 119.050781 15.988281 95.492188 C 15.988281 71.9375 35.085938 52.839844 58.648438 52.839844 "
              fill-opacity="1" fill-rule="nonzero"/>
    </g>
    <g clip-path="url(#d52a7527b5)">
        <path fill="#a370f7"
              d="M 316.480469 52.835938 C 340.046875 52.835938 359.148438 71.933594 359.148438 95.492188 C 359.148438 119.050781 340.046875 138.144531 316.480469 138.144531 C 292.921875 138.144531 273.824219 119.050781 273.824219 95.492188 C 273.824219 71.933594 292.921875 52.835938 316.480469 52.835938 "
              fill-opacity="1" fill-rule="nonzero"/>
    </g>
</svg>
